<svg xmlns="http://www.w3.org/2000/svg" width="61.995" height="51.363" viewBox="0 0 61.995 51.363">
  <g id="Group_23498" data-name="Group 23498" transform="translate(1.061 1.061)">
    <path id="Path_31124" data-name="Path 31124" d="M1692.09,3316.223s1.061,3.962-1.493,6.516l-3.625,3.625" transform="translate(-1638.856 -3295.211)" fill="none" stroke="#002581" stroke-linecap="round" stroke-miterlimit="10" stroke-width="1.5"/>
    <path id="Path_31125" data-name="Path 31125" d="M1506.735,3227.411s4-.069,6.283,2.209l2.279,2.279" transform="translate(-1486.686 -3219.906)" fill="none" stroke="#7e8cd6" stroke-linecap="round" stroke-miterlimit="10" stroke-width="1.5"/>
    <path id="Path_31123" data-name="Path 31123" d="M1536.959,3225.427s-3.262-1.088-7.612,3.262-8.424,8.476-8.424,8.476,2.578,5.4,6.87,1.467c1.113-1.02,2.225-2.151,2.942-2.9a1.386,1.386,0,0,1,1.7-.236c1.942,1.127,6.633,3.094,10.585-1.218" transform="translate(-1498.081 -3218.713)" fill="none" stroke="#002581" stroke-linecap="round" stroke-miterlimit="10" stroke-width="1.5"/>
    <path id="Path_31126" data-name="Path 31126" d="M1615.808,3311.213l11.168,11.168a2.954,2.954,0,0,1,0,4.177h0a2.954,2.954,0,0,1-4.177,0l-6.715-6.715" transform="translate(-1578.774 -3290.657)" fill="none" stroke="#7e8cd6" stroke-linecap="round" stroke-miterlimit="10" stroke-width="1.5"/>
    <path id="Path_31127" data-name="Path 31127" d="M1591.25,3366.636l6.063,6.012a2.948,2.948,0,0,1,.009,4.177h0a2.948,2.948,0,0,1-4.168,0l-6.719-6.719" transform="translate(-1553.974 -3337.45)" fill="none" stroke="#7e8cd6" stroke-linecap="round" stroke-miterlimit="10" stroke-width="1.5"/>
    <path id="Path_31128" data-name="Path 31128" d="M1588.762,3391.577l6.052,6a2.962,2.962,0,0,1,.009,4.2h0a2.962,2.962,0,0,1-4.168.02l-1-.984" transform="translate(-1555.94 -3358.507)" fill="none" stroke="#7e8cd6" stroke-linecap="round" stroke-miterlimit="10" stroke-width="1.5"/>
    <rect id="Rectangle_11986" data-name="Rectangle 11986" width="5.932" height="14.219" rx="2.966" transform="translate(25.041 27.258) rotate(45)" fill="none" stroke="#002581" stroke-linecap="round" stroke-miterlimit="10" stroke-width="1.5"/>
    <rect id="Rectangle_11987" data-name="Rectangle 11987" width="5.932" height="11.801" rx="2.966" transform="translate(27.635 33.04) rotate(45)" fill="none" stroke="#002581" stroke-linecap="round" stroke-miterlimit="10" stroke-width="1.5"/>
    <rect id="Rectangle_11988" data-name="Rectangle 11988" width="5.932" height="9.563" rx="2.966" transform="translate(30.831 38.285) rotate(45)" fill="none" stroke="#002581" stroke-linecap="round" stroke-miterlimit="10" stroke-width="1.5"/>
    <path id="Path_31129" data-name="Path 31129" d="M1427.949,3306.556a7.535,7.535,0,0,0,2.279,6.473l3.547,3.547" transform="translate(-1420.105 -3286.726)" fill="none" stroke="#7e8cd6" stroke-linecap="round" stroke-miterlimit="10" stroke-width="1.5"/>
    <rect id="Rectangle_11990" data-name="Rectangle 11990" width="7.25" height="24.503" rx="3.625" transform="translate(37.421 5.408) rotate(-45)" fill="none" stroke="#002581" stroke-linecap="round" stroke-miterlimit="10" stroke-width="1.5"/>
    <rect id="Rectangle_11991" data-name="Rectangle 11991" width="7.25" height="24.503" rx="3.625" transform="translate(5.126 22.453) rotate(-135)" fill="none" stroke="#7e8cd6" stroke-linecap="round" stroke-miterlimit="10" stroke-width="1.5"/>
    <ellipse id="Ellipse_12682" data-name="Ellipse 12682" cx="1.191" cy="1.191" rx="1.191" ry="1.191" transform="translate(53.504 16.45)" fill="none" stroke="#002581" stroke-linecap="round" stroke-miterlimit="10" stroke-width="1.5"/>
    <ellipse id="Ellipse_12683" data-name="Ellipse 12683" cx="1.191" cy="1.191" rx="1.191" ry="1.191" transform="translate(4.004 16.227)" fill="none" stroke="#7e8cd6" stroke-linecap="round" stroke-miterlimit="10" stroke-width="1.5"/>
    <rect id="Rectangle_11989" data-name="Rectangle 11989" width="5.932" height="11.29" rx="2.966" transform="translate(18.743 25.126) rotate(45)" fill="none" stroke="#002581" stroke-linecap="round" stroke-miterlimit="10" stroke-width="1.5"/>
  </g>
</svg>
