<svg xmlns="http://www.w3.org/2000/svg" width="43.465" height="48.724" viewBox="0 0 43.465 48.724">
  <g id="Group_23499" data-name="Group 23499" transform="translate(0.75 0.75)">
    <path id="Path_31130" data-name="Path 31130" d="M2765.863,3408.532H2753.4a1.583,1.583,0,0,0-1.556,1.308c-.275,1.5-1.375,3.877-5.482,4.864a1.6,1.6,0,0,0-1.244,1.544v21.143s-.094,10.184,21.028,18.294l.1-.051c21.123-8.11,20.837-18.243,20.837-18.243v-21.143a1.6,1.6,0,0,0-1.244-1.544c-4.106-.986-5.207-3.364-5.482-4.864a1.583,1.583,0,0,0-1.557-1.308h-12.463" transform="translate(-2745.118 -3408.532)" fill="none" stroke="#002581" stroke-miterlimit="10" stroke-width="1.5"/>
    <path id="Path_31131" data-name="Path 31131" d="M2781.045,3433.044a14.5,14.5,0,1,1-10.2-13.858" transform="translate(-2746.149 -3410.025)" fill="none" stroke="#7e8cd6" stroke-miterlimit="10" stroke-width="1.5"/>
    <path id="Path_31132" data-name="Path 31132" d="M2760.529,3428.6h0a3.342,3.342,0,0,0,0,4.76l5.213,5.14a3.342,3.342,0,0,0,4.69,0l12.9-12.7a3.341,3.341,0,0,0-.083-4.842l-.215-.2a3.342,3.342,0,0,0-4.695.17l-7.722,8.208a3.341,3.341,0,0,1-4.827.042l-.524-.537A3.342,3.342,0,0,0,2760.529,3428.6Z" transform="translate(-2747.27 -3410.227)" fill="none" stroke="#7e8cd6" stroke-miterlimit="10" stroke-width="1.5"/>
  </g>
</svg>
