<svg xmlns="http://www.w3.org/2000/svg" width="287.997" height="22.475" viewBox="0 0 287.997 22.475">
  <path id="Path_30964" data-name="Path 30964" d="M1677.061,77.322a3.145,3.145,0,0,1-2.711,1.507H1665.7a.158.158,0,0,1-.145-.09.171.171,0,0,1,.009-.176l12.833-19.926a4.719,4.719,0,0,1,4.067-2.261h13.6a4.721,4.721,0,0,1,4.067,2.261l12.833,19.926a.172.172,0,0,1,.008.176.158.158,0,0,1-.145.09h-8.651a3.146,3.146,0,0,1-2.712-1.507l-3.3-5.121a.394.394,0,0,0-.339-.188h-13.361a.157.157,0,0,1-.145-.091.177.177,0,0,1,.009-.174l2.067-3.21a.4.4,0,0,1,.339-.189h8.645a.157.157,0,0,0,.143-.09.169.169,0,0,0-.009-.174l-4.687-7.277a1.57,1.57,0,0,0-1.356-.754h-.417a1.571,1.571,0,0,0-1.356.754Zm-14.189-9.254V78.4a.423.423,0,0,1-.414.432h-29.051c-16.694,0-16.437-10.052-16.437-11.226s-.257-11.226,16.437-11.226h29.051a.424.424,0,0,1,.414.434v2.858a.424.424,0,0,1-.414.434h-25.337c-7.629,0-9.166,3.919-9.166,7.535s1.537,7.536,9.166,7.536h15.111a.426.426,0,0,0,.415-.434V68.067a.425.425,0,0,1,.415-.432h9.4A.423.423,0,0,1,1662.872,68.067ZM1830.6,65.931H1855.5a.424.424,0,0,1,.414.432v2.479a.424.424,0,0,1-.414.432H1830.6a.932.932,0,0,1-.909-.949V66.879A.93.93,0,0,1,1830.6,65.931ZM1813.111,67.6c0-1.175-.258-11.226,16.437-11.226h28.615a.425.425,0,0,1,.416.432v2.859a.425.425,0,0,1-.416.432h-24.9c-7.606,0-9.156,3.9-9.166,7.5.01,3.605,1.559,7.5,9.166,7.5h24.9a.425.425,0,0,1,.416.432V78.4a.425.425,0,0,1-.416.432h-28.615C1812.853,78.829,1813.111,68.777,1813.111,67.6Zm-97.045,11.226h9.4a.425.425,0,0,0,.415-.427c.07-5.948,0-11.938,0-17.891a.424.424,0,0,1,.414-.432H1741.4c7.631,0,9.166,2.613,9.166,5.026s-1.536,5.026-9.166,5.026h-11.158a.426.426,0,0,0-.416.434v2.859a.426.426,0,0,0,.416.432h14.872c16.7,0,16.437-7.835,16.437-8.751s.259-8.751-16.437-8.751h-29.05a.424.424,0,0,0-.414.432V78.4A.424.424,0,0,0,1716.065,78.829Zm48.494,0h9.4a.424.424,0,0,0,.415-.427c.072-5.948,0-11.938,0-17.891a.425.425,0,0,1,.416-.432H1789.9c7.631,0,9.166,2.613,9.166,5.026s-1.535,5.026-9.166,5.026h-11.157a.425.425,0,0,0-.415.434v2.859a.425.425,0,0,0,.415.432h14.87c16.7,0,16.437-7.835,16.437-8.751s.259-8.751-16.437-8.751H1764.56a.424.424,0,0,0-.415.432V78.4A.424.424,0,0,0,1764.56,78.829Zm-182.451-1.507a3.145,3.145,0,0,1-2.712,1.507h-8.653a.161.161,0,0,1-.144-.09.176.176,0,0,1,.01-.176l12.831-19.926a4.722,4.722,0,0,1,4.067-2.261h13.6a4.722,4.722,0,0,1,4.067,2.261l12.833,19.926a.179.179,0,0,1,.008.176.161.161,0,0,1-.144.09h-8.653a3.146,3.146,0,0,1-2.712-1.507l-3.3-5.121a.394.394,0,0,0-.339-.188H1589.51a.16.16,0,0,1-.145-.091.173.173,0,0,1,.01-.174l2.067-3.21a.393.393,0,0,1,.339-.189h8.643a.161.161,0,0,0,.144-.09.173.173,0,0,0-.01-.174l-4.686-7.277a1.572,1.572,0,0,0-1.355-.754h-.419a1.574,1.574,0,0,0-1.356.754Z" transform="translate(-1570.581 -56.354)" fill="#fff" fill-rule="evenodd"/>
</svg>
