<svg xmlns="http://www.w3.org/2000/svg" width="513.177" height="508.315" viewBox="0 0 513.177 508.315"><defs><style>.a{fill:#a9edea;}.b{fill:#fff;}.c,.d,.g,.j{fill:none;}.c,.d{stroke:#4b4583;}.c,.d,.g{stroke-linecap:round;stroke-linejoin:round;}.c{stroke-width:0.978px;}.d{stroke-width:0.684px;}.e{fill:#4b4583;}.f{fill:#7e8cd6;}.g{stroke:#fff;stroke-width:1.665px;}.h{fill:#00093c;}.i{fill:#5866b1;}.j{stroke:#7e8cd6;stroke-miterlimit:10;stroke-width:1.052px;}.k{fill:#39306c;}.l{fill:#1f264e;}</style></defs><g transform="translate(-132.548)"><g transform="translate(551.218 114.639)"><ellipse class="a" cx="47.254" cy="47.254" rx="47.254" ry="47.254"/><ellipse class="b" cx="36.845" cy="36.845" rx="36.845" ry="36.845" transform="translate(10.409 10.409)"/><g transform="translate(47.254 25.1)"><line class="c" y1="22.154"/><line class="c" x2="13.544" y2="13.544" transform="translate(0 22.154)"/></g><g transform="translate(14.58 14.566)"><line class="d" y1="4.374" transform="translate(32.672 60.992)"/><line class="d" x1="2.187" y1="3.794" transform="translate(46.82 57.198)"/><line class="d" x1="3.794" y1="2.187" transform="translate(57.175 46.843)"/><line class="d" x1="4.396" transform="translate(60.969 32.694)"/><line class="d" x1="3.772" y2="2.187" transform="translate(57.198 16.358)"/><line class="d" x1="2.187" y2="3.772" transform="translate(46.82 4.396)"/><line class="d" y1="4.396" transform="translate(32.672)"/><line class="d" x1="2.187" y1="3.794" transform="translate(16.336 4.396)"/><line class="d" x1="3.772" y1="2.187" transform="translate(4.374 16.358)"/><line class="d" x1="4.374" transform="translate(0 32.694)"/><line class="d" x1="3.794" y2="2.187" transform="translate(4.374 46.843)"/><line class="d" x1="2.187" y2="3.794" transform="translate(16.336 57.198)"/></g><ellipse class="e" cx="2.138" cy="2.138" rx="2.138" ry="2.138" transform="translate(45.115 45.116)"/></g><g transform="translate(169.271 96.145)"><path class="f" d="M378.691,698.088a50.917,50.917,0,1,0-9.779,79.643,7.554,7.554,0,0,1,6.042-.731l12.873,3.833a1.288,1.288,0,0,0,1.6-1.6L385.6,766.354a7.561,7.561,0,0,1,.739-6.056A50.921,50.921,0,0,0,378.691,698.088Z" transform="translate(-291.856 -683.175)"/><g transform="translate(22.018 28.64)"><line class="g" x2="57.704"/><line class="g" x2="13.839" transform="translate(43.866 14.848)"/><line class="g" x2="30.117" transform="translate(0 14.848)"/><line class="g" x2="31.32" transform="translate(26.385 29.696)"/><line class="g" x2="15.06" transform="translate(0 29.696)"/><line class="g" x2="13.84" transform="translate(43.865 44.543)"/><line class="g" x2="29.44" transform="translate(0 44.543)"/></g></g><g transform="translate(132.548 95.062)"><g transform="translate(176.871 0)"><path class="h" d="M371.893,710.574s-3.131-13.83,10.178-25.7,33.874-10.791,45.152-4.6c14.614,8.025,28.96,29.261,15.848,59.6s46.971,17.81,26.813,58.91-55,12.723-67.523,29.75-55.886-27.615-18.843-58.824S374.7,738.626,371.893,710.574Z" transform="translate(-300.305 -675.73)"/><path class="i" d="M396.772,760.519c-24.993,10.652-45.689,73.99-47.619,209.113h53.864S435.742,743.908,396.772,760.519Z" transform="translate(-349.153 -571.516)"/><path class="f" d="M446.493,752.227c29.538-2.916,77.691,1.991,95,21.1,3.818,4.217,3.838,12.115,1.79,23.042-7.228,38.605-40.254,115-22.7,200.249H366.794s14.586-66.613,6.435-87.631c-9.319-24.032-17.384-45.75-8.209-65.822,20.892-45.707,2.182-64.629,15.42-71.236C398.658,762.835,421.5,754.695,446.493,752.227Z" transform="translate(-332.048 -583.367)"/><path class="i" d="M464.047,835.288c-6.433,37.321-49.652,41.932-71.314,34.638,0,0,31.529,19.089,54.263,8.365,0,0,5.792,18.23-2.867,75.563H472.4s-.007-.115-.017-.294c-4.476-29.988-3.07-58.673.834-84.74a120.082,120.082,0,0,1,3.021-17.45l.042-.159c3.583-18.279,8.067-34.986,12.091-49.574a162.869,162.869,0,0,0,2.375-29.406S470.482,797.969,464.047,835.288Z" transform="translate(-286.135 -553.314)"/><path class="a" d="M481,830.762s-26.86,32.994-39.85,24.059c-17.2-11.834-31.358-11.621-42.725-4.831-11.792,7.042-16.3,19.228-16.3,19.228h92.2l26.835-23.225Z" transform="translate(-301.478 -468.678)"/><path class="f" d="M467.614,764.8s23.7,61.914,44.031,112.529c16.408,40.858-82.536,96.537-82.536,96.537l-16.339-21.9,56.982-63.166L434.9,815.321s-20.2-40.083,10.469-54.29C462.435,753.126,467.614,764.8,467.614,764.8Z" transform="translate(-257.163 -573.481)"/><path class="a" d="M435.3,727.118s-3.725,46.937,7.534,59.2c14.476,15.765-10.939,49.76-49.116,75.5,0,0-21.342-23.7-4.613-62.305s.516-60.412.516-60.412Z" transform="translate(-300.635 -618.55)"/><path class="a" d="M459.512,753.257c0,32.16-22.658,58.2-41.8,58.2s-43.06-21.388-46.279-60.96c-2.605-32.055,14.666-55.476,40.785-55.476S459.512,721.095,459.512,753.257Z" transform="translate(-317.31 -664.957)"/><path class="h" d="M394.951,696.217c-2.688,1.551-8.515,5.327-15.3,9.845-7.394,4.924-15.275,13.451-17.988,22.78-4.655,16.021,7.135,36.319,30.585,29.152s34.655-44.784,53.683-23.039c23.646,27.026,32.226,11.963,32.226,11.963s-4.743-33.647-28.7-48.791C436.607,690.012,417.259,683.349,394.951,696.217Z" transform="translate(-332.519 -673.681)"/><g transform="translate(47.127 12.335)"><path class="f" d="M430.123,725.327c0,10.491-6.2,19-13.852,19s-13.852-8.5-13.852-19,6.2-19,13.852-19S430.123,714.836,430.123,725.327Z" transform="translate(-319.257 -660.943)"/><path class="f" d="M421.841,688.841c-21.307-4.1-41.849,3.948-53.421,18.981a61.9,61.9,0,0,1,46.633-9.217c28.3,5.45,48.348,28.435,49.013,53.957a45.582,45.582,0,0,0,1.3-5.1C470.519,720.705,451.032,694.462,421.841,688.841Z" transform="translate(-368.42 -687.775)"/><g transform="translate(45.958 70.584)"><path class="j" d="M427.9,716.632s3.862,42.933-35.6,47.008" transform="translate(-379.854 -716.632)"/><path class="f" d="M397.074,741.916h-6.22a3.646,3.646,0,0,1-3.645-3.647h0a3.646,3.646,0,0,1,3.645-3.647h6.22a3.648,3.648,0,0,1,3.647,3.647h0A3.649,3.649,0,0,1,397.074,741.916Z" transform="translate(-387.209 -690.618)"/></g></g></g><g transform="translate(0 253.984)"><g transform="translate(142.369 146.405)"><rect class="k" width="235.318" height="12.863" rx="2.317"/></g><path class="h" d="M545.32,945.836H338.46a13.371,13.371,0,0,1-12.565-8.8L277.662,804.514a13.371,13.371,0,0,1,12.565-17.946H497.085a13.374,13.374,0,0,1,12.565,8.8l48.236,132.525A13.373,13.373,0,0,1,545.32,945.836Z" transform="translate(-276.843 -786.568)"/><path class="l" d="M280.363,787.444c.778,78.327,105.678,141.679,234.982,141.679,12.678,0,25.116-.616,37.248-1.788L504.56,795.366a13.374,13.374,0,0,0-12.565-8.8H285.138A13.354,13.354,0,0,0,280.363,787.444Z" transform="translate(-271.754 -786.568)"/><path class="a" d="M358.108,827.3a15.657,15.657,0,1,1-15.657-15.657A15.656,15.656,0,0,1,358.108,827.3Z" transform="translate(-204.614 -750.305)"/></g></g><g transform="translate(499.613)"><path class="a" d="M437.72,654.686a36.933,36.933,0,1,1,7.094,57.768,5.475,5.475,0,0,0-4.381-.528l-9.339,2.779a.933.933,0,0,1-1.162-1.162l2.779-9.339a5.493,5.493,0,0,0-.536-4.4A36.935,36.935,0,0,1,437.72,654.686Z" transform="translate(-426.91 -643.868)"/><g transform="translate(10.451 30.966)"><ellipse class="b" cx="5.962" cy="5.962" rx="5.962" ry="5.962"/><ellipse class="b" cx="5.962" cy="5.962" rx="5.962" ry="5.962" transform="translate(20.485)"/><ellipse class="b" cx="5.962" cy="5.962" rx="5.962" ry="5.962" transform="translate(40.971)"/></g></g></g></svg>