<svg xmlns="http://www.w3.org/2000/svg" width="35.922" height="55" viewBox="0 0 35.922 55">
  <g id="Group_23781" data-name="Group 23781" transform="translate(0.778 0.75)">
    <path id="Path_31136" data-name="Path 31136" d="M2073.643,4016.985l-5.3,3.849a1.621,1.621,0,0,1-2.495-1.812l2.945-9.063a1.62,1.62,0,0,0-.589-1.812l-7.71-5.6a1.621,1.621,0,0,1,.953-2.933h9.529a1.621,1.621,0,0,0,1.542-1.12l2.945-9.064a1.622,1.622,0,0,1,3.084,0l2.945,9.064a1.622,1.622,0,0,0,1.542,1.12h9.53a1.622,1.622,0,0,1,.953,2.933l-7.691,5.587a1.621,1.621,0,0,0-.579,1.841l3.34,9.661" transform="translate(-2059.825 -3988.308)" fill="none" stroke="#7e8cd6" stroke-miterlimit="10" stroke-width="1.5"/>
    <path id="Path_31133" data-name="Path 31133" d="M2082.472,4037.577v-11.3a2.542,2.542,0,0,0-2.542-2.542h0a2.542,2.542,0,0,0-2.542,2.542v17.063a.144.144,0,0,1-.252.1l-2.239-2.5a2.574,2.574,0,0,0-3.666-.171h0a2.574,2.574,0,0,0-.136,3.642l8.6,9.247a3.166,3.166,0,0,0,2.318,1.009h11.133a3.165,3.165,0,0,0,3.166-3.165v-15.758a2.189,2.189,0,0,0-2.189-2.189h0a2.189,2.189,0,0,0-2.19,2.189v2.189" transform="translate(-2063.665 -4001.167)" fill="none" stroke="#002581" stroke-miterlimit="10" stroke-width="1.5"/>
    <path id="Path_31134" data-name="Path 31134" d="M2089.292,4041.9v-4.73a2.4,2.4,0,0,1,2.4-2.4h0a2.4,2.4,0,0,1,2.4,2.4v4.73" transform="translate(-2070.52 -4005.17)" fill="none" stroke="#002581" stroke-miterlimit="10" stroke-width="1.5"/>
    <path id="Path_31135" data-name="Path 31135" d="M2096.829,4042.744v-3.319a2.33,2.33,0,0,1,2.33-2.33h0a2.33,2.33,0,0,1,2.33,2.33v3.319" transform="translate(-2073.256 -4006.015)" fill="none" stroke="#002581" stroke-miterlimit="10" stroke-width="1.5"/>
  </g>
</svg>
