
<svg xmlns="http://www.w3.org/2000/svg" width="205.031" height="16" viewBox="0 0 205.031 16">
  <path id="Path_30943" data-name="Path 30943" d="M1646.386,71.281a2.239,2.239,0,0,1-1.93,1.073H1638.3a.113.113,0,0,1-.1-.064.122.122,0,0,1,.006-.125l9.136-14.186a3.36,3.36,0,0,1,2.9-1.61h9.681a3.361,3.361,0,0,1,2.9,1.61l9.136,14.186a.122.122,0,0,1,.006.125.112.112,0,0,1-.1.064h-6.159a2.24,2.24,0,0,1-1.931-1.073l-2.348-3.645a.28.28,0,0,0-.241-.134h-9.512a.112.112,0,0,1-.1-.065.126.126,0,0,1,.006-.124l1.471-2.285a.282.282,0,0,1,.241-.135h6.154a.112.112,0,0,0,.1-.064.12.12,0,0,0-.006-.124l-3.337-5.181a1.117,1.117,0,0,0-.965-.537h-.3a1.118,1.118,0,0,0-.965.537Zm-10.1-6.588v7.354a.3.3,0,0,1-.294.308h-20.682c-11.885,0-11.7-7.156-11.7-7.992s-.183-7.992,11.7-7.992h20.682a.3.3,0,0,1,.294.309v2.034a.3.3,0,0,1-.294.309h-18.038c-5.432,0-6.526,2.79-6.526,5.364s1.094,5.365,6.526,5.365h10.758a.3.3,0,0,0,.3-.309V64.693a.3.3,0,0,1,.3-.308h6.689A.3.3,0,0,1,1636.284,64.693Zm119.408-1.521h17.73a.3.3,0,0,1,.294.308v1.765a.3.3,0,0,1-.294.308h-17.73a.663.663,0,0,1-.647-.675V63.847A.662.662,0,0,1,1755.693,63.172Zm-12.45,1.19c0-.836-.183-7.992,11.7-7.992h20.372a.3.3,0,0,1,.3.308v2.036a.3.3,0,0,1-.3.308h-17.728c-5.415,0-6.519,2.775-6.526,5.342s1.11,5.342,6.526,5.342h17.728a.3.3,0,0,1,.3.308v2.036a.3.3,0,0,1-.3.308h-20.372C1743.059,72.354,1743.242,65.2,1743.242,64.362Zm-69.088,7.992h6.693a.3.3,0,0,0,.3-.3c.05-4.234,0-8.5,0-12.737a.3.3,0,0,1,.294-.308h10.758c5.432,0,6.525,1.861,6.525,3.578s-1.094,3.578-6.525,3.578h-7.944a.3.3,0,0,0-.3.309v2.036a.3.3,0,0,0,.3.308h10.587c11.886,0,11.7-5.578,11.7-6.23s.185-6.23-11.7-6.23h-20.681a.3.3,0,0,0-.295.308V72.046A.3.3,0,0,0,1674.154,72.354Zm34.524,0h6.692a.3.3,0,0,0,.3-.3c.051-4.234,0-8.5,0-12.737a.3.3,0,0,1,.3-.308h10.756c5.433,0,6.526,1.861,6.526,3.578s-1.093,3.578-6.526,3.578h-7.943a.3.3,0,0,0-.3.309v2.036a.3.3,0,0,0,.3.308h10.586c11.886,0,11.7-5.578,11.7-6.23s.185-6.23-11.7-6.23h-20.68a.3.3,0,0,0-.3.308V72.046A.3.3,0,0,0,1708.678,72.354Zm-129.89-1.073a2.239,2.239,0,0,1-1.93,1.073h-6.16a.115.115,0,0,1-.1-.064.125.125,0,0,1,.007-.125l9.135-14.186a3.362,3.362,0,0,1,2.9-1.61h9.682a3.362,3.362,0,0,1,2.9,1.61l9.136,14.186a.127.127,0,0,1,.006.125.115.115,0,0,1-.1.064h-6.16a2.239,2.239,0,0,1-1.931-1.073l-2.348-3.645a.281.281,0,0,0-.241-.134h-9.512a.114.114,0,0,1-.1-.065.123.123,0,0,1,.007-.124l1.472-2.285a.28.28,0,0,1,.241-.135h6.153a.114.114,0,0,0,.1-.064.123.123,0,0,0-.007-.124l-3.336-5.181a1.12,1.12,0,0,0-.965-.537h-.3a1.121,1.121,0,0,0-.965.537Z" transform="translate(-1570.581 -56.354)" fill="#002581" fill-rule="evenodd"/>
</svg>